HIERARCHY
ROOT Hips
{
	OFFSET 0.000000 0.000000 0.000000
	CHANNELS 6 Xposition Yposition Zposition Xrotation Yrotation Zrotation
	JOINT LeftUpLeg_virtual
	{
		OFFSET 0.000000 0.000000 0.000000
		CHANNELS 3 Xrotation Yrotation Zrotation
		JOINT LeftUpLeg
		{
			OFFSET 15.427100 -6.655098 0.678600
			CHANNELS 3 Xrotation Yrotation Zrotation
			JOINT LeftLeg
			{
				OFFSET 4.081073 -39.591068 13.024000
				CHANNELS 3 Xrotation Yrotation Zrotation
				JOINT LeftFoot
				{
					OFFSET -4.081074 -37.707932 -15.979700
					CHANNELS 3 Xrotation Yrotation Zrotation
					JOINT LeftToeBase
					{
						OFFSET 5.346399 -15.068900 20.645000
						CHANNELS 3 Xrotation Yrotation Zrotation
						JOINT LeftToe_End
						{
							OFFSET 2.754700 0.931300 11.300900
							CHANNELS 3 Xrotation Yrotation Zrotation
							End Site
							{
								OFFSET 0 0 0
							}
						}
					}
				}
			}
		}
	}
	JOINT RightUpLeg_virtual
	{
		OFFSET 0.000000 0.000000 0.000000
		CHANNELS 3 Xrotation Yrotation Zrotation
		JOINT RightUpLeg
		{
			OFFSET -15.569500 -6.655098 0.678600
			CHANNELS 3 Xrotation Yrotation Zrotation
			JOINT RightLeg
			{
				OFFSET -4.081825 -39.591045 13.023800
				CHANNELS 3 Xrotation Yrotation Zrotation
				JOINT RightFoot
				{
					OFFSET 4.081824 -37.707954 -15.979600
					CHANNELS 3 Xrotation Yrotation Zrotation
					JOINT RightToeBase
					{
						OFFSET -5.346400 -15.068900 20.645000
						CHANNELS 3 Xrotation Yrotation Zrotation
						JOINT RightToe_End
						{
							OFFSET -2.754700 0.931300 11.300900
							CHANNELS 3 Xrotation Yrotation Zrotation
							End Site
							{
								OFFSET 0 0 0
							}
						}
					}
				}
			}
		}
	}
	JOINT Spine_virtual
	{
		OFFSET 0.000000 0.000000 0.000000
		CHANNELS 3 Xrotation Yrotation Zrotation
		JOINT Spine
		{
			OFFSET -0.279200 12.230698 -2.892100
			CHANNELS 3 Xrotation Yrotation Zrotation
			JOINT Spine1
			{
				OFFSET -0.232667 10.192268 -1.242267
				CHANNELS 3 Xrotation Yrotation Zrotation
				JOINT Spine1_split
				{
					OFFSET -0.232667 10.192268 -1.242267
					CHANNELS 3 Xrotation Yrotation Zrotation
					JOINT Spine2
					{
						OFFSET -0.232667 10.192268 -1.242267
						CHANNELS 3 Xrotation Yrotation Zrotation
						JOINT Neck_virtual
						{
							OFFSET 0.000000 0.000000 0.000000
							CHANNELS 3 Xrotation Yrotation Zrotation
							JOINT Neck
							{
								OFFSET -0.418800 17.814194 8.416900
								CHANNELS 3 Xrotation Yrotation Zrotation
								JOINT Head
								{
									OFFSET 0.000000 7.031097 3.806800
									CHANNELS 3 Xrotation Yrotation Zrotation
									JOINT HeadTop_End
									{
										OFFSET 0.000000 24.646606 12.978600
										CHANNELS 3 Xrotation Yrotation Zrotation
										End Site
										{
											OFFSET 0 0 0
										}
									}
								}
							}
						}
						JOINT LeftShoulder_virtual
						{
							OFFSET 0.000000 0.000000 0.000000
							CHANNELS 3 Xrotation Yrotation Zrotation
							JOINT LeftShoulder
							{
								OFFSET 8.476499 7.247704 -3.868750
								CHANNELS 3 Xrotation Yrotation Zrotation
								JOINT LeftShoulder_split
								{
									OFFSET 8.476499 7.247704 -3.868750
									CHANNELS 3 Xrotation Yrotation Zrotation
									JOINT LeftArm
									{
										OFFSET 9.308998 -2.777710 0.208600
										CHANNELS 3 Xrotation Yrotation Zrotation
										JOINT LeftForeArm
										{
											OFFSET 29.972298 0.000000 0.000000
											CHANNELS 3 Xrotation Yrotation Zrotation
											JOINT LeftHand
											{
												OFFSET 26.026505 0.000000 0.000000
												CHANNELS 3 Xrotation Yrotation Zrotation
												End Site
												{
													OFFSET 0 0 0
												}
											}
										}
									}
								}
							}
						}
						JOINT RightShoulder_virtual
						{
							OFFSET 0.000000 0.000000 0.000000
							CHANNELS 3 Xrotation Yrotation Zrotation
							JOINT RightShoulder
							{
								OFFSET -7.570500 7.247704 -3.868750
								CHANNELS 3 Xrotation Yrotation Zrotation
								JOINT RightShoulder_split
								{
									OFFSET -7.570500 7.247704 -3.868750
									CHANNELS 3 Xrotation Yrotation Zrotation
									JOINT RightArm
									{
										OFFSET -9.308998 -2.777710 0.208500
										CHANNELS 3 Xrotation Yrotation Zrotation
										JOINT RightForeArm
										{
											OFFSET -29.972300 0.000000 0.000000
											CHANNELS 3 Xrotation Yrotation Zrotation
											JOINT RightHand
											{
												OFFSET -26.026505 0.000000 0.000000
												CHANNELS 3 Xrotation Yrotation Zrotation
												End Site
												{
													OFFSET 0 0 0
												}
											}
										}
									}
								}
							}
						}
					}
				}
			}
		}
	}
}
MOTION
Frames: 9
Frame Time: 0.03333333
6.929804 85.706726 114.495010 0.000000 0.000000 0.000000 22.774692 25.749542 -6.900068 -44.639101 7.027199 18.516339 41.093352 9.699225 -6.279795 3.701128 29.786035 -8.534742 -11.735436 1.294967 -2.462534 0.000000 0.000000 0.000000 23.855780 25.715433 -7.822168 -47.188356 -6.947991 -2.723731 30.927913 -5.009985 -8.209675 -4.013328 -7.553048 4.509376 4.726005 0.393717 0.105787 0.000000 0.000000 0.000000 21.624654 22.423788 -6.308189 11.665298 -1.010753 2.949846 8.376226 -2.609613 0.619811 0.730257 3.709568 0.059838 0.000000 0.000000 0.000000 8.728495 -2.864624 0.491991 -6.243777 0.294743 2.971996 -20.546447 1.101165 1.984431 0.000000 0.000000 0.000000 8.971547 -2.938350 0.529698 0.615290 -9.173952 -6.746728 3.933578 -4.045645 1.164214 -26.344661 -23.001379 -31.467525 -0.056457 -25.614294 -0.045561 0.000000 0.000000 0.000000 9.284266 -2.587469 0.835956 2.053480 5.405378 4.624324 4.236116 2.923009 -0.904030 -16.773654 -8.642837 54.070250 0.933237 63.697934 -1.358170 0.000000 0.000000 0.000000 
7.435796 88.033630 116.889862 0.000000 0.000000 0.000000 23.232170 28.178813 -7.521479 -45.436689 7.330100 14.920642 34.753638 9.022576 -6.004506 6.413566 29.332507 -11.462094 -11.164341 0.505146 0.044531 0.000000 0.000000 0.000000 24.224757 28.337977 -8.425491 -41.214635 -9.394574 -2.724156 25.022217 -5.515115 -8.660396 -4.532936 -8.920855 5.329492 3.584603 0.530757 0.406238 0.000000 0.000000 0.000000 21.848175 24.036149 -6.719195 11.154314 0.283427 2.872498 8.754837 -2.319757 0.671665 0.637899 4.128185 -0.028309 0.000000 0.000000 0.000000 8.968186 -2.597195 0.565463 -5.666272 -0.141165 2.300418 -22.982226 -1.823615 0.748028 0.000000 0.000000 0.000000 9.215970 -2.662162 0.436296 0.825687 -8.839145 -6.757514 4.273752 -4.094710 1.119412 -23.742984 -23.365329 -31.320768 0.258569 -24.508365 0.055931 0.000000 0.000000 0.000000 9.718486 -2.247045 0.874108 2.066017 5.777039 4.898809 3.827892 2.663731 -0.785550 -18.578333 -9.782347 55.264573 -0.012447 67.640292 -0.622873 0.000000 0.000000 0.000000 
8.006749 89.036926 119.298424 0.000000 0.000000 0.000000 23.214959 30.167347 -8.132909 -46.331717 7.421192 12.222308 29.586078 9.066194 -5.923823 9.004326 29.682523 -13.348673 -8.416549 0.159034 1.091725 0.000000 0.000000 0.000000 24.220877 30.570690 -8.984269 -36.270091 -11.660503 -2.600598 21.720811 -5.750001 -8.795202 -6.165867 -10.423816 6.136183 2.055881 0.671869 0.595957 0.000000 0.000000 0.000000 21.569264 25.734819 -7.154370 10.707893 1.452118 3.015118 9.044089 -1.989750 0.561908 0.408976 4.365515 -0.296502 0.000000 0.000000 0.000000 9.084627 -2.322983 0.509585 -5.331752 -0.431723 1.317505 -25.292544 -4.720373 -0.626175 0.000000 0.000000 0.000000 9.480792 -2.369223 0.241945 1.017140 -8.100887 -6.575362 4.187776 -4.104275 1.043685 -21.072798 -22.776021 -31.086650 0.610465 -25.513207 0.243052 0.000000 0.000000 0.000000 10.098920 -1.916817 0.755537 2.034342 6.319688 5.131462 3.401170 2.440063 -0.637998 -19.192743 -10.152654 56.750266 -0.988771 72.269740 0.243926 0.000000 0.000000 0.000000 
8.610939 88.600662 121.740532 0.000000 0.000000 0.000000 22.561211 31.674135 -8.647623 -47.416450 7.310603 10.332352 26.567486 9.480814 -5.858843 10.824976 30.518562 -13.611956 -5.397452 0.067169 1.446070 0.000000 0.000000 0.000000 23.900953 32.490424 -9.534673 -32.595100 -13.429742 -2.294099 21.917565 -5.756355 -8.583926 -9.458402 -12.120618 6.514756 0.990480 0.801690 0.554980 0.000000 0.000000 0.000000 20.912494 27.717283 -7.686687 10.326662 2.515192 3.288122 9.135247 -1.552713 0.280347 0.324157 4.425368 -0.438369 0.000000 0.000000 0.000000 9.049510 -1.973652 0.300589 -5.264108 -0.761422 0.180951 -27.116374 -7.657597 -1.838838 0.000000 0.000000 0.000000 9.655196 -1.987597 -0.027575 1.184143 -7.027435 -6.119704 3.827707 -4.170533 1.081332 -18.570306 -21.261996 -30.803272 0.948544 -28.870113 0.458273 0.000000 0.000000 0.000000 10.335411 -1.513701 0.481751 1.958871 7.057258 5.210581 3.058531 2.283801 -0.549959 -18.858458 -9.589559 58.582041 -1.604820 76.736711 0.828801 0.000000 0.000000 0.000000 
9.240786 87.095207 124.500603 0.000000 0.000000 0.000000 21.461744 32.922284 -9.082979 -48.860045 7.021682 9.168101 26.122164 10.015716 -6.029116 11.244775 31.069366 -11.696617 -4.177567 0.012101 1.745581 0.000000 0.000000 0.000000 23.244240 33.916821 -10.075064 -29.947070 -14.577925 -1.665718 25.238124 -5.581147 -8.030842 -14.138746 -13.975245 6.347387 0.390647 0.882192 0.270838 0.000000 0.000000 0.000000 20.133904 30.012452 -8.318551 9.960250 3.466989 3.519068 8.940653 -0.992260 -0.105627 0.470324 4.331723 -0.507951 0.000000 0.000000 0.000000 8.846160 -1.469499 -0.032208 -5.404578 -1.177280 -0.928175 -28.260428 -10.681389 -2.594684 0.000000 0.000000 0.000000 9.640885 -1.444680 -0.323364 1.304389 -5.742110 -5.373744 3.342988 -4.167651 0.980788 -16.470685 -19.214193 -30.490528 1.153182 -34.107506 0.610188 0.000000 0.000000 0.000000 10.301856 -0.985790 0.114704 1.834995 7.933202 5.095828 2.852510 2.230161 -0.517693 -18.102187 -8.494699 60.598251 -1.426871 80.382584 0.610965 0.000000 0.000000 0.000000 
10.014370 85.362724 127.518593 0.000000 0.000000 0.000000 20.179239 34.170070 -9.541271 -50.535275 6.789042 8.973925 27.886054 10.404178 -6.519134 11.001254 30.650440 -8.083118 -5.481574 -0.159294 2.450645 0.000000 0.000000 0.000000 22.452189 35.433082 -10.718090 -27.822357 -15.290142 -0.715842 30.297507 -5.221284 -7.312559 -19.313673 -15.742223 5.671898 -0.051997 0.938931 -0.228363 0.000000 0.000000 0.000000 19.479640 32.517083 -9.063734 9.500049 4.258885 3.526225 8.400818 -0.313299 -0.500298 0.692197 3.930730 -0.496771 0.000000 0.000000 0.000000 8.463228 -0.805548 -0.410195 -5.605908 -1.810764 -1.907125 -28.526681 -13.815414 -2.682661 0.000000 0.000000 0.000000 9.307468 -0.721653 -0.570968 1.361297 -4.469927 -4.419154 2.797062 -4.172440 0.688759 -14.880127 -17.049464 -30.049885 1.165645 -40.240821 0.669619 0.000000 0.000000 0.000000 9.894063 -0.336785 -0.273749 1.685657 8.757192 4.763026 2.830672 2.157584 -0.543496 -17.521995 -7.379394 62.578835 0.151666 83.122371 -1.063455 0.000000 0.000000 0.000000 
10.963934 84.088905 131.027466 0.000000 0.000000 0.000000 19.053719 35.491606 -10.137084 -52.425175 6.518930 9.369762 31.361715 10.365313 -7.138012 11.708422 29.124753 -4.864148 -6.429626 -0.232722 2.286161 0.000000 0.000000 0.000000 21.654929 36.868337 -11.420631 -25.662528 -15.891400 0.491184 35.145879 -4.558629 -6.554232 -23.469555 -17.021456 4.749842 -0.683330 1.026109 -0.788813 0.000000 0.000000 0.000000 19.026708 35.021303 -9.935048 8.837428 4.844802 3.190645 7.520947 0.417196 -0.815148 1.033067 3.575055 -0.205980 0.000000 0.000000 0.000000 7.880091 -0.033641 -0.761689 -5.772122 -2.614939 -2.678658 -27.819815 -16.949408 -1.983915 0.000000 0.000000 0.000000 8.634449 0.096388 -0.730422 1.330194 -3.320972 -3.431685 2.289969 -4.199827 0.334404 -13.960623 -15.333218 -29.483522 1.024195 -46.111194 0.668452 0.000000 0.000000 0.000000 9.103983 0.367378 -0.608803 1.527687 9.296273 4.250962 3.040402 1.924190 -0.666770 -17.250934 -6.627697 64.429550 3.470307 85.116690 -4.544990 0.000000 0.000000 0.000000 
12.170404 83.733299 134.828674 0.000000 0.000000 0.000000 18.296578 36.933715 -10.834026 -53.345430 6.499194 9.910639 34.601168 10.218798 -7.561422 12.470022 26.966599 -2.248814 -6.301735 -0.165455 1.409872 0.000000 0.000000 0.000000 20.870167 37.989775 -12.017231 -23.159723 -16.584031 1.775518 38.168648 -3.612081 -5.844093 -25.437667 -17.678604 3.976414 -2.119100 1.140617 -1.275256 0.000000 0.000000 0.000000 18.831779 37.090342 -10.867117 7.955698 5.143764 2.507501 6.402625 1.092928 -1.005241 1.256344 3.270609 0.030257 0.000000 0.000000 0.000000 7.139884 0.747880 -1.038681 -5.773983 -3.442928 -3.185967 -26.202368 -19.876950 -0.548299 0.000000 0.000000 0.000000 7.681426 0.901515 -0.797808 1.203487 -2.440509 -2.540781 1.798277 -4.283090 -0.057188 -13.516648 -14.611226 -28.777329 0.826130 -51.126022 0.685437 0.000000 0.000000 0.000000 7.976517 1.017132 -0.854406 1.359084 9.377379 3.757461 3.390018 1.670382 -0.845077 -17.160683 -6.455513 66.187805 8.117168 86.502283 -9.353352 0.000000 0.000000 0.000000 
13.682975 84.384483 138.764389 0.000000 0.000000 0.000000 17.776831 38.267798 -11.468992 -52.075661 6.951091 10.300560 35.562647 10.159564 -7.373434 11.685613 24.585035 -0.128540 -6.595599 -0.102053 0.914358 0.000000 0.000000 0.000000 20.210595 38.914562 -12.488157 -20.603442 -17.433400 2.778201 38.964108 -2.348856 -5.251855 -24.354935 -17.773616 3.902699 -4.891160 1.286371 -1.662197 0.000000 0.000000 0.000000 18.613206 38.629173 -11.696581 6.916471 5.062987 1.560750 5.199779 1.616619 -1.115412 1.437512 2.998769 0.220398 0.000000 0.000000 0.000000 6.269519 1.387951 -1.230936 -5.634332 -4.232206 -3.446531 -23.768946 -22.322786 1.486002 0.000000 0.000000 0.000000 6.549348 1.554331 -0.820462 0.975031 -1.915428 -1.856819 1.184062 -4.557554 -0.317862 -13.357452 -15.121957 -28.102472 0.807392 -55.291392 0.869825 0.000000 0.000000 0.000000 6.701765 1.515660 -1.024067 1.189884 8.917348 3.380425 3.712594 1.475493 -0.984227 -16.716895 -6.496816 67.909033 12.617848 87.287256 -13.917039 0.000000 0.000000 0.000000 
